<svg width="32" height="32" viewBox="0 0 32 32" fill="none" xmlns="http://www.w3.org/2000/svg">
<g clip-path="url(#clip0_33_1061)">
<path d="M29.952 0H2.048C0.916921 0 0 0.916921 0 2.048V29.952C0 31.0831 0.916921 32 2.048 32H29.952C31.0831 32 32 31.0831 32 29.952V2.048C32 0.916921 31.0831 0 29.952 0Z" fill="black"/>
<mask id="mask0_33_1061" style="mask-type:alpha" maskUnits="userSpaceOnUse" x="0" y="0" width="32" height="32">
<path d="M29.952 0H2.048C0.916921 0 0 0.916921 0 2.048V29.952C0 31.0831 0.916921 32 2.048 32H29.952C31.0831 32 32 31.0831 32 29.952V2.048C32 0.916921 31.0831 0 29.952 0Z" fill="black"/>
</mask>
<g mask="url(#mask0_33_1061)">
<path d="M8.84117 23.744H4.35938L11.1884 3.96216H16.5781L23.3975 23.744H18.9156L13.9605 8.4826H13.806L8.84117 23.744ZM8.56105 15.9684H19.1474V19.2332H8.56105V15.9684ZM25.7011 23.744V8.90762H29.6903V11.4962H29.8449C30.1153 10.5754 30.5693 9.87998 31.2068 9.4099C31.8443 8.93335 32.5784 8.69508 33.4091 8.69508C33.6151 8.69508 33.8373 8.70801 34.0755 8.73374C34.3138 8.75953 34.5231 8.79492 34.7034 8.83998V12.4911C34.5102 12.4332 34.243 12.3817 33.9017 12.3366C33.5604 12.2915 33.2481 12.269 32.9648 12.269C32.3594 12.269 31.8186 12.401 31.342 12.665C30.872 12.9226 30.4985 13.2832 30.2216 13.7468C29.9511 14.2105 29.8159 14.7449 29.8159 15.3502V23.744H25.7011Z" fill="white"/>
</g>
</g>
<defs>
<clipPath id="clip0_33_1061">
<rect width="32" height="32" fill="white"/>
</clipPath>
</defs>
</svg>
